<?xml version="1.0" encoding="UTF-8" standalone="no"?><!DOCTYPE svg PUBLIC "-//W3C//DTD SVG 1.1//EN" "http://www.w3.org/Graphics/SVG/1.1/DTD/svg11.dtd"><svg width="100%" height="100%" viewBox="0 0 386 386" version="1.1" xmlns="http://www.w3.org/2000/svg" xmlns:xlink="http://www.w3.org/1999/xlink" xml:space="preserve" xmlns:serif="http://www.serif.com/" style="fill-rule:evenodd;clip-rule:evenodd;stroke-linejoin:round;stroke-miterlimit:2;"><g><circle cx="191.938" cy="192.1" r="184.547" style="fill:#333;"/><g><path d="M169.907,224.13l0,-64.059l56.303,32.03l-56.303,32.029Zm125.239,-84.216c-2.477,-9.328 -9.777,-16.676 -19.045,-19.169c-16.799,-4.531 -84.163,-4.531 -84.163,-4.531c0,0 -67.363,0 -84.164,4.531c-9.267,2.493 -16.567,9.841 -19.044,19.169c-4.501,16.909 -4.501,52.186 -4.501,52.186c0,0 0,35.279 4.501,52.187c2.477,9.329 9.777,16.675 19.044,19.169c16.801,4.53 84.164,4.53 84.164,4.53c0,0 67.364,0 84.163,-4.53c9.268,-2.494 16.568,-9.84 19.045,-19.169c4.502,-16.908 4.502,-52.187 4.502,-52.187c0,0 0,-35.277 -4.502,-52.186Z" style="fill:#fff;fill-rule:nonzero;"/></g></g></svg>